<svg xmlns="http://www.w3.org/2000/svg" viewBox="0 0 526.53 400.05"><defs><style>.cls-1{fill:#fff;}.cls-2{fill:#020203;}</style></defs><title>4</title><g id="Layer_2" data-name="Layer 2"><g id="Calque_1" data-name="Calque 1"><g id="boomerang"><polygon class="cls-1" points="263.27 304.99 0 152.49 0 247.56 263.27 400.05 526.53 247.56 526.53 152.49 263.27 304.99"/><path class="cls-2" d="M263.27,0,526.53,152.49,263.27,305,0,152.49Z"/><path class="cls-2" d="M493.52,182.32c9.39-6,22.28-11.34,21.57,1.82a12.68,12.68,0,0,1-3.24,7.44,15.83,15.83,0,0,1-6.78,4.4,22.27,22.27,0,0,0-11.3,9.75A26.84,26.84,0,0,0,490.46,218c0,2.67.8,12.07,8.24,7.52a18.17,18.17,0,0,0,2.5-1.85,11.33,11.33,0,0,0,3.71-7.22l-3.18,2c-3.71,2.29-3.65-4-3.65-4.31.07-7,3.43-9.09,3.61-9.21l12.9-8.09c.2-.12,3.92-2.47,3.78,4.42-.46,23.35-6.4,40.12-22.08,49.62-11.84,7.08-24.14.06-24.2-21.55S481.26,190.05,493.52,182.32Z"/><path class="cls-2" d="M157.34,253.58c16.39,9.91,29.35,31,29.22,53.39-.12,21.67-13.24,27.93-29.62,18-15.24-9.21-28.61-29.88-28.48-52.66C128.58,250,141.41,244,157.34,253.58Zm1.27,46.86c5,2.49,7.26-1.3,6.77-7.31s-3.31-12.48-8.58-15.08-7.25,1.4-6.76,7.49,3.53,12.4,8.56,14.89"/><path class="cls-2" d="M245.41,304.48c-3.4-2-7-1.93-9.37,0l-11.9,9.32L211,289.42c-1.35-2.62-4.27-7.39-8.58-9.9a11.75,11.75,0,0,0-5.71-1.87c-6.5,0-6.72,8.84-6.72,9.84l-.25,42.35c-.17,3.2,0,14.1,10.1,20a5.92,5.92,0,0,0,3,.9c5.54,0,7-9.58,7-15.24l.05-6.86,10.45,17.18a7,7,0,0,0,2.8,2.94c1.42.83,3,.56,4.58-.7l8-5.54-.07,11.72c0,7.65.87,18.29,8.34,22.49a12,12,0,0,0,5.69,1.8h0c4.94,0,6.72-5.31,6.74-9.88l.25-43.53C256.71,323.67,256.44,310.89,245.41,304.48Z"/><path class="cls-2" d="M55.68,230.5c8.71,7.79,9.37,15.51,9.34,20.43-.07,11.34-6.29,15.57-21.5,6.72L23,245.62A24.86,24.86,0,0,1,10.2,224.71l.24-41.32c0-.5,0-13.48,12.92-6l20.56,12C59.14,198.29,65.27,209.7,65.2,221,65.17,226,64.42,232.85,55.68,230.5Zm-17.33,7.05c3.25,1.89,4.53,0,4.54-2.19a9,9,0,0,0-4.24-7.79L32.47,224l-.06,10.13,5.95,3.46m.38-24c2.85,1.66,4.29.08,4.3-2.83a8.94,8.94,0,0,0-4.48-7.44l-5.95-3.46-.06,10.13,6.19,3.6"/><path class="cls-2" d="M97.5,220.06c16.37,9.9,28.7,31.09,28.58,53.45-.12,21.67-12.61,27.86-29,18-15.24-9.21-29.68-30.39-29.56-53.17C67.67,215.95,81.58,210.44,97.5,220.06Zm.21,46.32c5.16,2.19,7.17-1.72,6.33-7.68s-4-12.26-9.45-14.56S87.44,246,88.29,252s4.25,12.18,9.43,14.38"/><path class="cls-2" d="M434.33,218.09a4.7,4.7,0,0,1,6.41,1l11.56,14.36,0-12.05c0-.5-1.21-13.44,7.24-18.31s8.53,8,8.53,8.53l.12,42.28c0,.6,0,13.54-8.46,18.45-1.75,1-3.24.65-5.05-1.42L443,256l0,12.84c0,.6,0,13.54-8.47,18.45s-8.47-8.07-8.47-8.67l-.12-42.24C425.94,235.9,425.9,223,434.33,218.09Z"/><path class="cls-2" d="M306,293.19c.69-.4,8.51-4.81,8.54,5.52A18.05,18.05,0,0,1,306,314.25l-14.4,8.31,0,6L306.55,320c2.62-1.51,5.61-1.63,5.62,3.68,0,5.72-3,8.95-5.58,10.46l-14.92,8.61,0,5.93,14.4-8.32c.69-.4,8.51-4.81,8.54,5.52a18.06,18.06,0,0,1-8.48,15.55l-23.87,13.78c-11.56,6.67-11.52-6.31-11.52-6.91L270.64,327c0-.5-.11-13.4,12-20.41Z"/><path class="cls-2" d="M422.44,274.78a15,15,0,0,1,1.66,6.88,20.85,20.85,0,0,1-9.53,16.86c-2.93,1.69-5.66.75-7.09-2.15l-1.65-4.26-17.36,10-2.25,8c-1.43,4.55-4.12,8.62-7.05,10.31-4.28,2.47-10.47,1.1-10.5-6.33a24.68,24.68,0,0,1,1.46-7.84l17.79-55.18c.78-2.37,2.69-7.79,8-10.85s8.34-.29,9.14,1.16Zm-29.66,10.69,10.54-5.77-4.94-15.87-5.6,21.64"/><path class="cls-1" d="M403.29,114.29l-119.9-67.9L272.17,40c-7.11-2.63-17.39-3.78-29.85,2.37L77,138.6s-15.27,8-4.15,17.31l135.56,78.17c39.93,23.84,83.81,26.68,120.9,6.78,24.37-13.07,24.37-35.37,12.21-49.77,20,5.46,46.5,5,69.54-7.42,38.7-20.78,34.36-45.54-7.74-69.38"/><path class="cls-2" d="M316.5,125.12l-19.85-11.4a7.17,7.17,0,0,1-.85-.46c-3.67-2.33-6.65-1.86-8.47-1.12l-1.64.91-.26.21,0,0-16.46,9.14,0,.07s-3.89,3.05,0,5.55l.07.06L289.6,140c10.18,5.88,20.69,6.58,29.56,1.71s7.58-10.65-2.67-16.53"/><path class="cls-2" d="M246.81,168.18l-23.3-13.63a5.31,5.31,0,0,1-1.59-.72,9.42,9.42,0,0,0-6.75-1.62l-22,12.21c-.78,1.12-1.34,2.87,1.06,4.41l0,0,24.8,14.61c9.68,5.7,21,5.9,29,1.49,8.73-4.79,8.45-11.06-1.3-16.76"/><path class="cls-2" d="M359.28,296.13c7-.74,7,4.16,7,12.6l0,4.92c0,.6,0,12.89-10.45,18.9s-8.63-8-8.63-8.61l0-9.13c0-5.21-1.28-5.59-2.46-4.91l-5.27,3.78,0,15.75c0,.61-.19,12.68-10.3,18.51-10,5.75-10.36-6-10.36-6.59l-.12-42.23c0-.5-.11-13.4,11.91-20.34l19-11.25c14.17-8.18,18.11-2.62,18.14,8.72C367.82,281,367.17,288.36,359.28,296.13Zm-13.52.78a8.77,8.77,0,0,0,4-7.61c0-2.22-1.19-5.61-4.23-3.85l-7.8,4.94,0,11.6,5.59-3.41"/></g></g></g></svg>